<mxfile host="Electron" agent="Mozilla/5.0 (Windows NT 10.0; Win64; x64) AppleWebKit/537.36 (KHTML, like Gecko) draw.io/24.7.8 Chrome/128.0.6613.36 Electron/32.0.1 Safari/537.36" version="24.7.8">
  <diagram name="Page-1" id="AFqvmMe0y24gvua5o3V1">
    <mxGraphModel dx="1500" dy="887" grid="1" gridSize="10" guides="1" tooltips="1" connect="1" arrows="1" fold="1" page="1" pageScale="1" pageWidth="850" pageHeight="1100" math="0" shadow="0">
      <root>
        <mxCell id="0" />
        <mxCell id="1" parent="0" />
        <mxCell id="2buqlNg4vawOU_XVmmW0-31" value="User" style="shape=umlLifeline;perimeter=lifelinePerimeter;whiteSpace=wrap;container=1;dropTarget=0;collapsible=0;recursiveResize=0;outlineConnect=0;portConstraint=eastwest;newEdgeStyle={&quot;edgeStyle&quot;:&quot;elbowEdgeStyle&quot;,&quot;elbow&quot;:&quot;vertical&quot;,&quot;curved&quot;:0,&quot;rounded&quot;:0};size=65;" vertex="1" parent="1">
          <mxGeometry x="20" y="20" width="150" height="1506" as="geometry" />
        </mxCell>
        <mxCell id="2buqlNg4vawOU_XVmmW0-32" value="Face Detection System" style="shape=umlLifeline;perimeter=lifelinePerimeter;whiteSpace=wrap;container=1;dropTarget=0;collapsible=0;recursiveResize=0;outlineConnect=0;portConstraint=eastwest;newEdgeStyle={&quot;edgeStyle&quot;:&quot;elbowEdgeStyle&quot;,&quot;elbow&quot;:&quot;vertical&quot;,&quot;curved&quot;:0,&quot;rounded&quot;:0};size=65;" vertex="1" parent="1">
          <mxGeometry x="235" y="20" width="179" height="1506" as="geometry" />
        </mxCell>
        <mxCell id="2buqlNg4vawOU_XVmmW0-33" value="" style="points=[];perimeter=orthogonalPerimeter;outlineConnect=0;targetShapes=umlLifeline;portConstraint=eastwest;newEdgeStyle={&quot;edgeStyle&quot;:&quot;elbowEdgeStyle&quot;,&quot;elbow&quot;:&quot;vertical&quot;,&quot;curved&quot;:0,&quot;rounded&quot;:0}" vertex="1" parent="2buqlNg4vawOU_XVmmW0-32">
          <mxGeometry x="84" y="109" width="10" height="81" as="geometry" />
        </mxCell>
        <mxCell id="2buqlNg4vawOU_XVmmW0-34" value="Voice Command System" style="shape=umlLifeline;perimeter=lifelinePerimeter;whiteSpace=wrap;container=1;dropTarget=0;collapsible=0;recursiveResize=0;outlineConnect=0;portConstraint=eastwest;newEdgeStyle={&quot;edgeStyle&quot;:&quot;elbowEdgeStyle&quot;,&quot;elbow&quot;:&quot;vertical&quot;,&quot;curved&quot;:0,&quot;rounded&quot;:0};size=65;" vertex="1" parent="1">
          <mxGeometry x="464" y="20" width="191" height="1506" as="geometry" />
        </mxCell>
        <mxCell id="2buqlNg4vawOU_XVmmW0-35" value="" style="points=[];perimeter=orthogonalPerimeter;outlineConnect=0;targetShapes=umlLifeline;portConstraint=eastwest;newEdgeStyle={&quot;edgeStyle&quot;:&quot;elbowEdgeStyle&quot;,&quot;elbow&quot;:&quot;vertical&quot;,&quot;curved&quot;:0,&quot;rounded&quot;:0}" vertex="1" parent="2buqlNg4vawOU_XVmmW0-34">
          <mxGeometry x="95" y="372" width="10" height="240" as="geometry" />
        </mxCell>
        <mxCell id="2buqlNg4vawOU_XVmmW0-36" value="" style="points=[];perimeter=orthogonalPerimeter;outlineConnect=0;targetShapes=umlLifeline;portConstraint=eastwest;newEdgeStyle={&quot;edgeStyle&quot;:&quot;elbowEdgeStyle&quot;,&quot;elbow&quot;:&quot;vertical&quot;,&quot;curved&quot;:0,&quot;rounded&quot;:0}" vertex="1" parent="2buqlNg4vawOU_XVmmW0-34">
          <mxGeometry x="95" y="696" width="10" height="240" as="geometry" />
        </mxCell>
        <mxCell id="2buqlNg4vawOU_XVmmW0-37" value="" style="points=[];perimeter=orthogonalPerimeter;outlineConnect=0;targetShapes=umlLifeline;portConstraint=eastwest;newEdgeStyle={&quot;edgeStyle&quot;:&quot;elbowEdgeStyle&quot;,&quot;elbow&quot;:&quot;vertical&quot;,&quot;curved&quot;:0,&quot;rounded&quot;:0}" vertex="1" parent="2buqlNg4vawOU_XVmmW0-34">
          <mxGeometry x="95" y="1020" width="10" height="240" as="geometry" />
        </mxCell>
        <mxCell id="2buqlNg4vawOU_XVmmW0-38" value="Email Service" style="shape=umlLifeline;perimeter=lifelinePerimeter;whiteSpace=wrap;container=1;dropTarget=0;collapsible=0;recursiveResize=0;outlineConnect=0;portConstraint=eastwest;newEdgeStyle={&quot;edgeStyle&quot;:&quot;elbowEdgeStyle&quot;,&quot;elbow&quot;:&quot;vertical&quot;,&quot;curved&quot;:0,&quot;rounded&quot;:0};size=65;" vertex="1" parent="1">
          <mxGeometry x="748" y="20" width="150" height="1506" as="geometry" />
        </mxCell>
        <mxCell id="2buqlNg4vawOU_XVmmW0-39" value="" style="points=[];perimeter=orthogonalPerimeter;outlineConnect=0;targetShapes=umlLifeline;portConstraint=eastwest;newEdgeStyle={&quot;edgeStyle&quot;:&quot;elbowEdgeStyle&quot;,&quot;elbow&quot;:&quot;vertical&quot;,&quot;curved&quot;:0,&quot;rounded&quot;:0}" vertex="1" parent="2buqlNg4vawOU_XVmmW0-38">
          <mxGeometry x="75" y="426" width="10" height="122" as="geometry" />
        </mxCell>
        <mxCell id="2buqlNg4vawOU_XVmmW0-40" value="" style="points=[];perimeter=orthogonalPerimeter;outlineConnect=0;targetShapes=umlLifeline;portConstraint=eastwest;newEdgeStyle={&quot;edgeStyle&quot;:&quot;elbowEdgeStyle&quot;,&quot;elbow&quot;:&quot;vertical&quot;,&quot;curved&quot;:0,&quot;rounded&quot;:0}" vertex="1" parent="2buqlNg4vawOU_XVmmW0-38">
          <mxGeometry x="75" y="750" width="10" height="122" as="geometry" />
        </mxCell>
        <mxCell id="2buqlNg4vawOU_XVmmW0-41" value="" style="points=[];perimeter=orthogonalPerimeter;outlineConnect=0;targetShapes=umlLifeline;portConstraint=eastwest;newEdgeStyle={&quot;edgeStyle&quot;:&quot;elbowEdgeStyle&quot;,&quot;elbow&quot;:&quot;vertical&quot;,&quot;curved&quot;:0,&quot;rounded&quot;:0}" vertex="1" parent="2buqlNg4vawOU_XVmmW0-38">
          <mxGeometry x="75" y="1074" width="10" height="122" as="geometry" />
        </mxCell>
        <mxCell id="2buqlNg4vawOU_XVmmW0-42" value="EmailÂ " style="shape=umlLifeline;perimeter=lifelinePerimeter;whiteSpace=wrap;container=1;dropTarget=0;collapsible=0;recursiveResize=0;outlineConnect=0;portConstraint=eastwest;newEdgeStyle={&quot;edgeStyle&quot;:&quot;elbowEdgeStyle&quot;,&quot;elbow&quot;:&quot;vertical&quot;,&quot;curved&quot;:0,&quot;rounded&quot;:0};size=65;" vertex="1" parent="1">
          <mxGeometry x="1030" y="20" width="150" height="1506" as="geometry" />
        </mxCell>
        <mxCell id="2buqlNg4vawOU_XVmmW0-43" value="" style="points=[];perimeter=orthogonalPerimeter;outlineConnect=0;targetShapes=umlLifeline;portConstraint=eastwest;newEdgeStyle={&quot;edgeStyle&quot;:&quot;elbowEdgeStyle&quot;,&quot;elbow&quot;:&quot;vertical&quot;,&quot;curved&quot;:0,&quot;rounded&quot;:0}" vertex="1" parent="2buqlNg4vawOU_XVmmW0-42">
          <mxGeometry x="70" y="472" width="10" height="30" as="geometry" />
        </mxCell>
        <mxCell id="2buqlNg4vawOU_XVmmW0-44" value="" style="points=[];perimeter=orthogonalPerimeter;outlineConnect=0;targetShapes=umlLifeline;portConstraint=eastwest;newEdgeStyle={&quot;edgeStyle&quot;:&quot;elbowEdgeStyle&quot;,&quot;elbow&quot;:&quot;vertical&quot;,&quot;curved&quot;:0,&quot;rounded&quot;:0}" vertex="1" parent="2buqlNg4vawOU_XVmmW0-42">
          <mxGeometry x="70" y="804" width="10" height="4" as="geometry" />
        </mxCell>
        <mxCell id="2buqlNg4vawOU_XVmmW0-45" value="" style="points=[];perimeter=orthogonalPerimeter;outlineConnect=0;targetShapes=umlLifeline;portConstraint=eastwest;newEdgeStyle={&quot;edgeStyle&quot;:&quot;elbowEdgeStyle&quot;,&quot;elbow&quot;:&quot;vertical&quot;,&quot;curved&quot;:0,&quot;rounded&quot;:0}" vertex="1" parent="2buqlNg4vawOU_XVmmW0-42">
          <mxGeometry x="70" y="1128" width="10" height="4" as="geometry" />
        </mxCell>
        <mxCell id="2buqlNg4vawOU_XVmmW0-49" value="Capture Face for Login" style="verticalAlign=bottom;edgeStyle=elbowEdgeStyle;elbow=vertical;curved=0;rounded=0;endArrow=block;" edge="1" parent="1" source="2buqlNg4vawOU_XVmmW0-31" target="2buqlNg4vawOU_XVmmW0-33">
          <mxGeometry relative="1" as="geometry">
            <Array as="points">
              <mxPoint x="216" y="129" />
            </Array>
          </mxGeometry>
        </mxCell>
        <mxCell id="2buqlNg4vawOU_XVmmW0-50" value="Authentication Status" style="verticalAlign=bottom;edgeStyle=elbowEdgeStyle;elbow=vertical;curved=0;rounded=0;endArrow=block;" edge="1" parent="1" source="2buqlNg4vawOU_XVmmW0-33" target="2buqlNg4vawOU_XVmmW0-31">
          <mxGeometry relative="1" as="geometry">
            <Array as="points">
              <mxPoint x="221" y="183" />
            </Array>
          </mxGeometry>
        </mxCell>
        <mxCell id="2buqlNg4vawOU_XVmmW0-51" value="&quot;Send Email&quot; Command" style="verticalAlign=bottom;edgeStyle=elbowEdgeStyle;elbow=vertical;curved=0;rounded=0;endArrow=block;" edge="1" parent="1" source="2buqlNg4vawOU_XVmmW0-31" target="2buqlNg4vawOU_XVmmW0-34">
          <mxGeometry relative="1" as="geometry">
            <Array as="points">
              <mxPoint x="336" y="284" />
            </Array>
          </mxGeometry>
        </mxCell>
        <mxCell id="2buqlNg4vawOU_XVmmW0-52" value="Compose Email Interface" style="verticalAlign=bottom;edgeStyle=elbowEdgeStyle;elbow=vertical;curved=0;rounded=0;endArrow=block;" edge="1" parent="1" source="2buqlNg4vawOU_XVmmW0-34" target="2buqlNg4vawOU_XVmmW0-38">
          <mxGeometry relative="1" as="geometry">
            <Array as="points">
              <mxPoint x="700" y="338" />
            </Array>
          </mxGeometry>
        </mxCell>
        <mxCell id="2buqlNg4vawOU_XVmmW0-53" value="Dictate Recipient, Subject, and Body" style="verticalAlign=bottom;edgeStyle=elbowEdgeStyle;elbow=vertical;curved=0;rounded=0;endArrow=block;" edge="1" parent="1" source="2buqlNg4vawOU_XVmmW0-31" target="2buqlNg4vawOU_XVmmW0-35">
          <mxGeometry relative="1" as="geometry">
            <Array as="points">
              <mxPoint x="336" y="392" />
            </Array>
          </mxGeometry>
        </mxCell>
        <mxCell id="2buqlNg4vawOU_XVmmW0-54" value="Convert to Text and Send" style="verticalAlign=bottom;edgeStyle=elbowEdgeStyle;elbow=vertical;curved=0;rounded=0;endArrow=block;" edge="1" parent="1" source="2buqlNg4vawOU_XVmmW0-35" target="2buqlNg4vawOU_XVmmW0-39">
          <mxGeometry relative="1" as="geometry">
            <Array as="points">
              <mxPoint x="702" y="446" />
            </Array>
          </mxGeometry>
        </mxCell>
        <mxCell id="2buqlNg4vawOU_XVmmW0-55" value="Save Email to Sent Items" style="verticalAlign=bottom;edgeStyle=elbowEdgeStyle;elbow=vertical;curved=0;rounded=0;endArrow=block;" edge="1" parent="1" source="2buqlNg4vawOU_XVmmW0-39" target="2buqlNg4vawOU_XVmmW0-43">
          <mxGeometry relative="1" as="geometry">
            <Array as="points">
              <mxPoint x="973" y="500" />
            </Array>
          </mxGeometry>
        </mxCell>
        <mxCell id="2buqlNg4vawOU_XVmmW0-56" value="Save Confirmation" style="verticalAlign=bottom;edgeStyle=elbowEdgeStyle;elbow=vertical;curved=0;rounded=0;dashed=1;dashPattern=2 3;endArrow=block;" edge="1" parent="1" source="2buqlNg4vawOU_XVmmW0-42" target="2buqlNg4vawOU_XVmmW0-39">
          <mxGeometry relative="1" as="geometry">
            <Array as="points">
              <mxPoint x="976" y="554" />
            </Array>
          </mxGeometry>
        </mxCell>
        <mxCell id="2buqlNg4vawOU_XVmmW0-57" value="Email Sent Confirmation" style="verticalAlign=bottom;edgeStyle=elbowEdgeStyle;elbow=vertical;curved=0;rounded=0;dashed=1;dashPattern=2 3;endArrow=block;" edge="1" parent="1" source="2buqlNg4vawOU_XVmmW0-38" target="2buqlNg4vawOU_XVmmW0-35">
          <mxGeometry relative="1" as="geometry">
            <Array as="points">
              <mxPoint x="705" y="608" />
            </Array>
          </mxGeometry>
        </mxCell>
        <mxCell id="2buqlNg4vawOU_XVmmW0-58" value="&quot;Email Sent Successfully&quot; Response" style="verticalAlign=bottom;edgeStyle=elbowEdgeStyle;elbow=vertical;curved=0;rounded=0;dashed=1;dashPattern=2 3;endArrow=block;" edge="1" parent="1" source="2buqlNg4vawOU_XVmmW0-34" target="2buqlNg4vawOU_XVmmW0-31">
          <mxGeometry relative="1" as="geometry">
            <Array as="points">
              <mxPoint x="339" y="662" />
            </Array>
          </mxGeometry>
        </mxCell>
        <mxCell id="2buqlNg4vawOU_XVmmW0-59" value="&quot;Read Email&quot; Command" style="verticalAlign=bottom;edgeStyle=elbowEdgeStyle;elbow=vertical;curved=0;rounded=0;endArrow=block;" edge="1" parent="1" source="2buqlNg4vawOU_XVmmW0-31" target="2buqlNg4vawOU_XVmmW0-36">
          <mxGeometry relative="1" as="geometry">
            <Array as="points">
              <mxPoint x="336" y="716" />
            </Array>
          </mxGeometry>
        </mxCell>
        <mxCell id="2buqlNg4vawOU_XVmmW0-60" value="Fetch Emails from Inbox" style="verticalAlign=bottom;edgeStyle=elbowEdgeStyle;elbow=vertical;curved=0;rounded=0;endArrow=block;" edge="1" parent="1" source="2buqlNg4vawOU_XVmmW0-36" target="2buqlNg4vawOU_XVmmW0-40">
          <mxGeometry relative="1" as="geometry">
            <Array as="points">
              <mxPoint x="702" y="770" />
            </Array>
          </mxGeometry>
        </mxCell>
        <mxCell id="2buqlNg4vawOU_XVmmW0-61" value="Retrieve Emails" style="verticalAlign=bottom;edgeStyle=elbowEdgeStyle;elbow=vertical;curved=0;rounded=0;endArrow=block;" edge="1" parent="1" source="2buqlNg4vawOU_XVmmW0-40" target="2buqlNg4vawOU_XVmmW0-44">
          <mxGeometry relative="1" as="geometry">
            <Array as="points">
              <mxPoint x="973" y="824" />
            </Array>
          </mxGeometry>
        </mxCell>
        <mxCell id="2buqlNg4vawOU_XVmmW0-62" value="Email List" style="verticalAlign=bottom;edgeStyle=elbowEdgeStyle;elbow=vertical;curved=0;rounded=0;dashed=1;dashPattern=2 3;endArrow=block;" edge="1" parent="1" source="2buqlNg4vawOU_XVmmW0-42" target="2buqlNg4vawOU_XVmmW0-40">
          <mxGeometry relative="1" as="geometry">
            <Array as="points">
              <mxPoint x="976" y="878" />
            </Array>
          </mxGeometry>
        </mxCell>
        <mxCell id="2buqlNg4vawOU_XVmmW0-63" value="Convert Emails to Audio" style="verticalAlign=bottom;edgeStyle=elbowEdgeStyle;elbow=vertical;curved=0;rounded=0;dashed=1;dashPattern=2 3;endArrow=block;" edge="1" parent="1" source="2buqlNg4vawOU_XVmmW0-38" target="2buqlNg4vawOU_XVmmW0-36">
          <mxGeometry relative="1" as="geometry">
            <Array as="points">
              <mxPoint x="705" y="932" />
            </Array>
          </mxGeometry>
        </mxCell>
        <mxCell id="2buqlNg4vawOU_XVmmW0-64" value="Read Emails One by One" style="verticalAlign=bottom;edgeStyle=elbowEdgeStyle;elbow=vertical;curved=0;rounded=0;dashed=1;dashPattern=2 3;endArrow=block;" edge="1" parent="1" source="2buqlNg4vawOU_XVmmW0-34" target="2buqlNg4vawOU_XVmmW0-31">
          <mxGeometry relative="1" as="geometry">
            <Array as="points">
              <mxPoint x="339" y="986" />
            </Array>
          </mxGeometry>
        </mxCell>
        <mxCell id="2buqlNg4vawOU_XVmmW0-65" value="&quot;Delete Email&quot; Command" style="verticalAlign=bottom;edgeStyle=elbowEdgeStyle;elbow=vertical;curved=0;rounded=0;endArrow=block;" edge="1" parent="1" source="2buqlNg4vawOU_XVmmW0-31" target="2buqlNg4vawOU_XVmmW0-37">
          <mxGeometry relative="1" as="geometry">
            <Array as="points">
              <mxPoint x="336" y="1040" />
            </Array>
          </mxGeometry>
        </mxCell>
        <mxCell id="2buqlNg4vawOU_XVmmW0-66" value="Delete Selected Email" style="verticalAlign=bottom;edgeStyle=elbowEdgeStyle;elbow=vertical;curved=0;rounded=0;endArrow=block;" edge="1" parent="1" source="2buqlNg4vawOU_XVmmW0-37" target="2buqlNg4vawOU_XVmmW0-41">
          <mxGeometry relative="1" as="geometry">
            <Array as="points">
              <mxPoint x="702" y="1094" />
            </Array>
          </mxGeometry>
        </mxCell>
        <mxCell id="2buqlNg4vawOU_XVmmW0-67" value="Remove Email from Database" style="verticalAlign=bottom;edgeStyle=elbowEdgeStyle;elbow=vertical;curved=0;rounded=0;endArrow=block;" edge="1" parent="1" source="2buqlNg4vawOU_XVmmW0-41" target="2buqlNg4vawOU_XVmmW0-45">
          <mxGeometry relative="1" as="geometry">
            <Array as="points">
              <mxPoint x="973" y="1148" />
            </Array>
          </mxGeometry>
        </mxCell>
        <mxCell id="2buqlNg4vawOU_XVmmW0-68" value="Deletion Confirmation" style="verticalAlign=bottom;edgeStyle=elbowEdgeStyle;elbow=vertical;curved=0;rounded=0;dashed=1;dashPattern=2 3;endArrow=block;" edge="1" parent="1" source="2buqlNg4vawOU_XVmmW0-42" target="2buqlNg4vawOU_XVmmW0-41">
          <mxGeometry relative="1" as="geometry">
            <Array as="points">
              <mxPoint x="976" y="1202" />
            </Array>
          </mxGeometry>
        </mxCell>
        <mxCell id="2buqlNg4vawOU_XVmmW0-69" value="Email Deleted Confirmation" style="verticalAlign=bottom;edgeStyle=elbowEdgeStyle;elbow=vertical;curved=0;rounded=0;dashed=1;dashPattern=2 3;endArrow=block;" edge="1" parent="1" source="2buqlNg4vawOU_XVmmW0-38" target="2buqlNg4vawOU_XVmmW0-37">
          <mxGeometry relative="1" as="geometry">
            <Array as="points">
              <mxPoint x="705" y="1256" />
            </Array>
          </mxGeometry>
        </mxCell>
        <mxCell id="2buqlNg4vawOU_XVmmW0-70" value="&quot;Email Deleted Successfully&quot; Response" style="verticalAlign=bottom;edgeStyle=elbowEdgeStyle;elbow=vertical;curved=0;rounded=0;dashed=1;dashPattern=2 3;endArrow=block;" edge="1" parent="1" source="2buqlNg4vawOU_XVmmW0-34" target="2buqlNg4vawOU_XVmmW0-31">
          <mxGeometry relative="1" as="geometry">
            <Array as="points">
              <mxPoint x="339" y="1310" />
            </Array>
          </mxGeometry>
        </mxCell>
        <mxCell id="2buqlNg4vawOU_XVmmW0-71" value="Access Denied" style="verticalAlign=bottom;edgeStyle=elbowEdgeStyle;elbow=vertical;curved=0;rounded=0;dashed=1;dashPattern=2 3;endArrow=block;" edge="1" parent="1" source="2buqlNg4vawOU_XVmmW0-33" target="2buqlNg4vawOU_XVmmW0-31">
          <mxGeometry relative="1" as="geometry">
            <Array as="points">
              <mxPoint x="221" y="1411" />
            </Array>
          </mxGeometry>
        </mxCell>
      </root>
    </mxGraphModel>
  </diagram>
</mxfile>
